<svg xmlns="http://www.w3.org/2000/svg" fill="none" viewBox="0 0 24 24"><g fill="currentColor" fill-rule="evenodd" clip-rule="evenodd"><path d="M22.38 5.23H1.6a.675.675 0 0 0-.176.02c-.027.007-.037.013-.039.014 0 0-.016.01-.04.056a.647.647 0 0 0-.065.238v16.904c0 .089.011.142.02.17a.129.129 0 0 0 .015.036s.01.016.057.039a.715.715 0 0 0 .249.062H22.4a.675.675 0 0 0 .177-.018.139.139 0 0 0 .038-.015s.016-.01.04-.056a.646.646 0 0 0 .065-.238V5.538a.604.604 0 0 0-.02-.17c-.007-.025-.014-.035-.015-.036 0 0-.01-.016-.057-.039a.714.714 0 0 0-.249-.062ZM22.4 4H1.6C0 4 0 5.538 0 5.538v16.924C0 24 1.6 24 1.6 24h20.8c1.6 0 1.6-1.538 1.6-1.538V5.538C24 4 22.4 4 22.4 4Z"/><path d="M.152 9.75a.6.6 0 0 1 .6-.6h22.5a.6.6 0 1 1 0 1.2H.752a.6.6 0 0 1-.6-.6ZM6.752.15a.6.6 0 0 1 .6.6V6a.6.6 0 1 1-1.2 0V.75a.6.6 0 0 1 .6-.6ZM17.252.15a.6.6 0 0 1 .6.6V6a.6.6 0 1 1-1.2 0V.75a.6.6 0 0 1 .6-.6Z"/></g></svg>