<svg xmlns="http://www.w3.org/2000/svg" fill="none" viewBox="0 0 24 24"><path fill="currentColor" fill-rule="evenodd" d="M2.697 13.75a1.6 1.6 0 0 1 1.6-1.6h15.406a1.6 1.6 0 0 1 1.6 1.6v8.5a1.6 1.6 0 0 1-1.6 1.6H4.297a1.6 1.6 0 0 1-1.6-1.6v-8.5Zm1.6-.4a.4.4 0 0 0-.4.4v8.5c0 .22.179.4.4.4h15.406a.4.4 0 0 0 .4-.4v-8.5a.4.4 0 0 0-.4-.4H4.297Z" clip-rule="evenodd"/><path fill="currentColor" fill-rule="evenodd" d="M8.27 15.15a.6.6 0 0 1 .6.6v4.5a.6.6 0 1 1-1.2 0v-4.5a.6.6 0 0 1 .6-.6ZM12 15.15a.6.6 0 0 1 .6.6v4.5a.6.6 0 1 1-1.2 0v-4.5a.6.6 0 0 1 .6-.6ZM15.73 15.15a.6.6 0 0 1 .6.6v4.5a.6.6 0 0 1-1.2 0v-4.5a.6.6 0 0 1 .6-.6ZM11.925.15a.6.6 0 0 1 .6.6v3.375a.6.6 0 0 1-.6.6A1.275 1.275 0 1 0 13.2 6a.6.6 0 1 1 1.2 0 2.475 2.475 0 1 1-3.075-2.402V.75a.6.6 0 0 1 .6-.6ZM9.324 9.333a.6.6 0 0 1-.016.849l-3.109 3a.6.6 0 0 1-.833-.864l3.11-3a.6.6 0 0 1 .848.015ZM14.676 9.333a.6.6 0 0 1 .848-.015l3.11 3a.6.6 0 1 1-.834.864l-3.109-3a.6.6 0 0 1-.015-.849Z" clip-rule="evenodd"/></svg>