<svg xmlns="http://www.w3.org/2000/svg" fill="none" viewBox="0 0 389 80"><path fill="#9FAEB5" d="M127.9 35.859h-10.045V10.746h-.104l-6.407 25.12h-6.869l-6.614-25.12h-.104v25.12h-8.102V.694h14.097l5.022 18.657h.103L113.693.694h14.2v35.165h.007ZM154.997 28.942h-9.377l-2.149 6.917h-8.764L145.62.694h11.382l11.017 35.165h-11.017l-1.998-6.917h-.007Zm-1.846-7.69-2.873-10.203-2.873 10.204H153.151ZM195.688 35.86l-10.101-16.453-3.128-6.36-.103.104.103.406c.51 2.253.717 3.486.717 5.898v16.404h-8.764V.694h10.204l11.788 19.629.104-.104-.772-9.742V.694h8.764v35.165h-8.819.007ZM241.821 23.3c0 4.098-.461 7.378-3.844 10.1-3.025 2.356-6.711 2.976-10.404 2.976-3.231 0-7.434-.717-10.148-2.515-3.741-2.46-4.458-5.794-4.458-9.997V.694h10.968v21.937c0 1.178-.055 2.77.669 3.844.82 1.13 2.459 1.592 3.844 1.592 1.233 0 2.77-.358 3.693-1.178 1.385-1.178 1.233-3.025 1.233-4.665V.694h8.461v22.605h-.014ZM261.491 35.86h-10.92V.693h14.351c3.438 0 7.276.103 10.307 1.846 3.28 1.95 5.23 5.436 5.23 9.226 0 3.334-1.282 6.51-3.9 8.612-2.715 2.205-6.201 2.714-9.584 2.714h-5.484V35.86Zm2.818-20.298c2.46 0 5.436-.152 5.436-3.431 0-3.28-2.666-3.383-5.126-3.383h-3.128v6.814h2.818ZM320.019 18.38c0 9.997-6.152 17.989-16.811 17.989-10.658 0-16.811-7.999-16.811-17.99 0-10.506 6.105-18.195 16.811-18.195 10.707 0 16.811 7.69 16.811 18.196Zm-22.088.055c0 3.383.358 9.894 5.277 9.894 4.92 0 5.285-6.511 5.285-9.894s-.517-10.307-5.285-10.307c-4.767 0-5.277 6.87-5.277 10.307ZM337.898 35.86h-10.92V.693h17.892c3.073 0 6.456.413 9.074 2.15 2.921 1.846 4.306 4.974 4.306 8.405 0 4.616-2.046 7.379-6.2 9.28l6.359 15.33h-11.995l-5.126-13.428h-3.383v13.428h-.007Zm0-20.966h3.948c2.356 0 5.181-.359 5.181-3.383 0-1.178-.613-2.308-1.695-2.873-.923-.462-2.046-.462-3.073-.462h-4.354v6.718h-.007ZM380.538 35.86h-10.252V9.154h-7.379V.694h24.859v8.46h-7.228V35.86ZM114.396 79.306H89.738V44.14h10.872v26.552h13.786v8.612ZM154.322 61.826c0 9.997-6.153 17.99-16.811 17.99-10.658 0-16.811-8-16.811-17.99 0-10.507 6.098-18.195 16.811-18.195 10.713 0 16.811 7.688 16.811 18.195Zm-22.089.055c0 3.383.359 9.894 5.278 9.894s5.284-6.51 5.284-9.894c0-3.382-.516-10.307-5.284-10.307s-5.278 6.87-5.278 10.307ZM193.476 79.306h-5.284l-1.433-3.693c-2.205 2.976-5.891 4.202-9.529 4.202-10.252 0-15.736-7.895-15.736-17.527 0-4.61 1.178-9.432 4.099-13.07 3.328-4.203 7.586-5.587 12.767-5.587 8.151 0 13.58 4.154 15.123 12.201l-10.459 1.075c-.413-2.818-1.591-5.484-4.871-5.484-4.974 0-5.277 6.662-5.277 10.252 0 2.046.103 4.609.923 6.455.875 2.053 2.563 3.383 4.816 3.383 2.77 0 4.816-1.695 4.816-4.457h-5.794v-7.434h15.839v19.683ZM213.966 79.306h-10.865V44.14h10.865v35.165ZM232.21 67.31c.923 3.129 3.279 4.251 6.407 4.251 1.385 0 4.155-.206 4.155-2.15 0-2.149-2.722-2.562-4.306-2.872-6.614-1.282-14.455-3.073-14.455-11.43 0-3.431 1.695-6.82 4.513-8.819 2.873-1.998 6.614-2.666 10.1-2.666 6.104 0 11.995 2.514 14.145 8.612l-8.916 2.714c-1.026-2.618-2.976-3.534-5.69-3.534-1.433 0-3.487.413-3.487 2.253s2.563 2.205 3.893 2.515c3.335.668 6.869 1.233 9.942 2.818 3.438 1.846 5.229 5.125 5.229 8.97 0 8.46-8.405 11.843-15.688 11.843-7.282 0-13.944-3.072-15.839-10.713l9.997-1.791ZM278.385 79.306h-10.252V52.6h-7.379v-8.46h24.858v8.46h-7.227v26.704ZM304.876 79.306h-10.865V44.14h10.865v35.165ZM344.443 66.49c-.668 8.103-6.559 13.325-14.654 13.325-10.562 0-16.095-7.64-16.095-17.63 0-9.99 4.871-18.554 15.943-18.554 8.971 0 14.097 5.332 14.813 14.096l-10.045.517c.103-2.977-1.027-6.718-4.664-6.718-4.768 0-4.975 7.33-4.975 10.665 0 3.535.207 9.536 5.078 9.536 3.335 0 4.616-2.921 4.768-5.843l9.838.614-.007-.007ZM361.964 67.31c.923 3.129 3.279 4.251 6.407 4.251 1.385 0 4.155-.206 4.155-2.15 0-2.149-2.722-2.562-4.306-2.872-6.614-1.282-14.455-3.073-14.455-11.43 0-3.431 1.695-6.82 4.513-8.819 2.873-1.998 6.614-2.666 10.1-2.666 6.104 0 11.995 2.514 14.152 8.612l-8.923 2.714c-1.026-2.618-2.976-3.534-5.691-3.534-1.433 0-3.486.413-3.486 2.253s2.563 2.205 3.893 2.515c3.335.668 6.869 1.233 9.942 2.818 3.438 1.846 5.229 5.125 5.229 8.97 0 8.46-8.405 11.843-15.688 11.843-7.282 0-13.945-3.072-15.839-10.713l9.997-1.791Z"/><path fill="#00358D" d="M19.853 28.327c9.355.303 16.588 6.875 24.655 10.733 10.436 5.263 22.168 10.464 34.106 7.935v-13.37C63.7 35.8 49.578 28.891 36.916 21.859c-5.414-3.045-10.766-6.992-17.235-7.172C12.041 14.048 5.049 18.34 0 23.72v12.09c5.552-4.589 12.496-8.033 19.853-7.496v.014Z"/><path fill="#00358D" d="M14.232 46.727c6.441-1.371 13.15.578 18.724 3.858C41.408 55.558 50.019 60.47 59.4 63.5c6.166 1.977 12.813 2.934 19.22 1.53V51.507c-5.773 1.005-11.704.585-17.346-.944-10.932-2.955-20.893-8.528-30.565-14.28-4.63-2.77-10.154-4.203-15.541-3.32-5.986.853-11.063 4.573-15.162 8.83v12.152c4.092-3.472 8.886-6.275 14.232-7.212l-.007-.007Z"/><path fill="#00358D" d="M78.62 79.31v-9.678c-5.22.654-10.58.668-15.706-.648-11.476-2.741-21.912-8.549-31.97-14.528-5.056-3.038-11.242-4.684-17.09-3.224C8.431 52.465 3.802 55.841 0 59.774V79.31h78.62ZM0 .69V17.8c5.938-5.015 13.695-8.514 21.603-7.391 8.762 1.081 15.575 7.178 23.332 10.801 10.292 5.132 21.975 10.409 33.686 7.523V.69H0Z"/></svg>