<svg style="color:#00358D;" viewBox="0 0 108 110" fill="none" xmlns="http://www.w3.org/2000/svg"><path d="M54.5312 8.54087L54.8919 2.7238C54.9112 2.36871 54.9885 2.07172 55.1108 1.8393C55.2332 1.60687 55.3942 1.43255 55.5809 1.30343C55.7677 1.1743 55.9737 1.09037 56.1927 1.04518C56.4181 0.999985 56.6306 0.987073 56.8367 0.999985C57.062 1.0129 57.3647 1.03872 57.7382 1.06455C58.1117 1.09037 58.511 1.13557 58.936 1.18076C59.361 1.22595 59.7732 1.29052 60.1595 1.36153L60.0629 2.85938L57.2359 2.68506C57.0427 2.67215 56.9011 2.71735 56.8045 2.81419C56.7079 2.91103 56.6563 3.02724 56.6499 3.16928L56.5855 4.24102L59.4576 4.51218L59.3675 5.9261L56.4825 5.83571L56.3086 8.65063L54.5312 8.54087Z" fill="currentColor"/><path d="M62.0013 9.34791C61.8403 9.31563 61.6536 9.26398 61.4411 9.19296C61.2286 9.11549 61.0289 9.00573 60.8486 8.85724C60.6683 8.70875 60.5266 8.50215 60.4365 8.2439C60.3463 7.98565 60.3334 7.65638 60.4107 7.25609L61.1642 3.20157C61.2286 2.84648 61.338 2.56886 61.4862 2.3558C61.6407 2.14275 61.8146 1.98134 62.0142 1.8845C62.2138 1.7812 62.4264 1.72309 62.6582 1.70372C62.8836 1.68435 63.1025 1.69727 63.3021 1.736C63.8431 1.8393 64.3067 1.93615 64.706 2.02653C65.0988 2.11692 65.4466 2.20085 65.7492 2.27833C66.0519 2.3558 66.3159 2.42682 66.5606 2.49138L66.2837 3.97632L63.5275 3.45982C63.3472 3.42754 63.1927 3.44045 63.0768 3.50501C62.9608 3.56958 62.8836 3.69225 62.8514 3.87948L62.6968 4.71233L65.5174 5.34504L65.2598 6.72668L62.407 6.30057L62.2589 7.08177C62.2332 7.23027 62.2332 7.35293 62.2589 7.44332C62.2911 7.54016 62.3426 7.61118 62.4135 7.66929C62.4843 7.7274 62.568 7.75968 62.6646 7.77905L65.4723 8.302L65.2019 9.77402C64.8992 9.75466 64.5643 9.72237 64.1908 9.67718C63.8238 9.63844 63.4503 9.58679 63.0703 9.52869C62.6904 9.47058 62.3362 9.41248 61.9949 9.34791H62.0013Z" fill="currentColor"/><path d="M67.5136 10.665C67.3591 10.6133 67.1788 10.5423 66.9727 10.439C66.7731 10.3357 66.5863 10.2001 66.4253 10.0323C66.2643 9.86441 66.1548 9.6449 66.0904 9.37374C66.0325 9.10257 66.0647 8.77976 66.187 8.39239L67.4299 4.46699C67.5394 4.12481 67.681 3.86011 67.8549 3.66642C68.0288 3.47273 68.2284 3.33715 68.4345 3.25968C68.647 3.1822 68.866 3.14992 69.0913 3.16283C69.3167 3.17574 69.5292 3.20803 69.7289 3.27259C70.2505 3.44045 70.7077 3.5954 71.0876 3.73098C71.4676 3.87302 71.8024 3.99569 72.0922 4.1119C72.382 4.22811 72.6396 4.33141 72.8714 4.4218L72.4142 5.86154L69.7418 5.00932C69.5679 4.95121 69.4133 4.95121 69.291 5.00286C69.1686 5.05451 69.0785 5.17072 69.0205 5.34504L68.7629 6.15207L71.4805 7.12696L71.0554 8.46341L68.2735 7.68866L68.0352 8.44404C67.9902 8.58607 67.9773 8.70874 67.9966 8.80559C68.0159 8.90243 68.061 8.9799 68.1254 9.04447C68.1898 9.10903 68.2735 9.15422 68.3637 9.1865L71.0812 10.0516L70.6304 11.4785C70.3342 11.4204 69.9993 11.3493 69.6387 11.259C69.2781 11.175 68.911 11.0782 68.544 10.9749C68.1769 10.8716 67.8292 10.7683 67.5007 10.665H67.5136Z" fill="currentColor"/><path d="M72.9359 12.6406C72.543 12.4598 72.2468 12.2532 72.0407 12.0143C71.8411 11.7755 71.7316 11.5043 71.7252 11.1879C71.7188 10.8716 71.8025 10.51 71.9892 10.1033L74.3655 4.86728L75.9883 5.60975L73.7344 10.5746C73.6764 10.7037 73.6442 10.8199 73.6507 10.9232C73.6507 11.0201 73.6893 11.1105 73.7601 11.1879C73.8245 11.2654 73.9147 11.33 74.0306 11.3816L76.1428 12.3436L75.4795 13.8027L72.9359 12.647V12.6406Z" fill="currentColor"/><path d="M75.8853 14.0868L79.6332 7.4046L81.1851 8.28265L77.4372 14.9649L75.8853 14.0868Z" fill="currentColor"/><path d="M78.2422 15.3393L82.6534 9.08322L83.8061 9.90316L83.5227 15.3845L86.1952 11.5947L87.6506 12.6277L83.2394 18.8838L82.0802 18.0639L82.3571 12.589L79.6911 16.3659L78.2422 15.3393Z" fill="currentColor"/><path d="M85.3259 20.8852C84.9781 20.5559 84.7592 20.2138 84.6755 19.8716C84.5918 19.5294 84.6046 19.1679 84.727 18.7998C84.8429 18.4318 85.0361 18.0509 85.313 17.6635C85.5899 17.2762 85.9183 16.8759 86.2983 16.4756C86.7104 16.043 87.1097 15.675 87.4961 15.378C87.8824 15.0811 88.2688 14.8809 88.6552 14.7776C89.0416 14.6743 89.4344 14.6872 89.8337 14.8163C90.2329 14.9455 90.658 15.2231 91.0958 15.6363C91.3728 15.8945 91.6046 16.1399 91.7913 16.3658C91.9845 16.5918 92.152 16.8113 92.3001 17.0308C92.4482 17.2503 92.5963 17.4763 92.7444 17.7087L91.7849 18.7224C91.6947 18.5997 91.5724 18.4448 91.4178 18.2704C91.2633 18.0961 91.083 17.9024 90.8833 17.6894C90.6837 17.4763 90.4648 17.2633 90.2265 17.0373C89.9303 16.7532 89.6534 16.5854 89.4086 16.5402C89.1639 16.495 88.8999 16.566 88.623 16.7661C88.3397 16.9663 87.9984 17.2762 87.5927 17.7087C87.2771 18.0445 87.0324 18.3285 86.8585 18.5674C86.6847 18.8063 86.5752 19.0129 86.5301 19.1872C86.485 19.368 86.4915 19.5294 86.5559 19.6779C86.6203 19.8264 86.7297 19.9684 86.8779 20.1105C87.071 20.2977 87.2642 20.4526 87.4445 20.5818C87.6313 20.7109 87.7794 20.8077 87.9018 20.8723L88.7389 19.9878L87.8631 19.1549L88.8355 18.1284C88.9579 18.2188 89.0995 18.3285 89.2541 18.4577C89.4087 18.5868 89.5761 18.7288 89.7435 18.8709C89.9109 19.0194 90.0655 19.1549 90.2007 19.2841C90.3746 19.4519 90.5292 19.594 90.6579 19.7231C90.7867 19.8522 90.9027 19.9749 91.0057 20.0846L87.9468 23.3128L86.9744 22.3895L87.1419 21.8536C86.9358 21.8085 86.6589 21.7116 86.3112 21.5631C85.9634 21.4146 85.635 21.1887 85.3194 20.8917L85.3259 20.8852Z" fill="currentColor"/><path d="M90.0139 25.7339L94.7085 22.2991C94.9982 22.0861 95.2687 21.957 95.5263 21.9053C95.7839 21.8537 96.0157 21.8601 96.2347 21.9247C96.4536 21.9892 96.6468 22.0925 96.8271 22.2346C97.001 22.3766 97.1555 22.5316 97.2714 22.6994C97.4067 22.8802 97.5805 23.1255 97.7931 23.4354C98.0056 23.7453 98.231 24.0746 98.4692 24.4362C98.7075 24.7977 98.92 25.1463 99.1132 25.495L97.909 26.3795L96.2411 24.0875C96.1252 23.9326 96.0028 23.8486 95.8676 23.8357C95.7324 23.8228 95.61 23.8616 95.4941 23.939L94.6312 24.5717L96.254 26.9605L95.1141 27.7934L93.3368 25.5144L91.0636 27.1736L90.0139 25.7274V25.7339Z" fill="currentColor"/><path d="M92.7894 29.4139L100.601 27.7159L101.683 29.6657L96.1445 35.4376L95.2429 33.8235L96.2669 32.8034L95.082 30.6729L93.6845 31.0215L92.7894 29.4139ZM96.679 30.2532L97.4646 31.6607L99.8087 29.4268L96.679 30.2532Z" fill="currentColor"/><path d="M96.2476 35.7346L103.396 33.0165L103.898 34.34L100.607 38.7238L104.935 37.0839L105.566 38.7561L98.4177 41.4742L97.9154 40.1442L101.193 35.7604L96.8786 37.4003L96.254 35.741L96.2476 35.7346Z" fill="currentColor"/><path d="M99.1197 44.7862C99.0231 44.3537 98.9845 43.9598 99.0102 43.6047C99.036 43.2432 99.1519 42.9204 99.3644 42.6234C99.5769 42.3264 99.9247 42.0617 100.395 41.8164C100.871 41.5775 101.502 41.3644 102.301 41.1836C103.08 41.0029 103.724 40.9254 104.252 40.9448C104.774 40.9641 105.199 41.061 105.521 41.2353C105.849 41.4096 106.1 41.655 106.287 41.9649C106.474 42.2747 106.609 42.6363 106.706 43.056C106.789 43.4304 106.847 43.7791 106.88 44.0954C106.912 44.4118 106.925 44.6958 106.918 44.9347C106.918 45.1736 106.899 45.3802 106.873 45.5416L105.527 45.8515C105.527 45.7159 105.514 45.5481 105.489 45.3415C105.463 45.1349 105.431 44.896 105.392 44.6313C105.347 44.3666 105.295 44.0825 105.225 43.792C105.167 43.5466 105.089 43.3336 104.999 43.1722C104.903 43.0043 104.767 42.8881 104.593 42.8235C104.413 42.7525 104.175 42.7267 103.866 42.7461C103.557 42.7654 103.17 42.8235 102.694 42.9333C102.243 43.0366 101.876 43.1399 101.593 43.2496C101.309 43.3594 101.097 43.4821 100.955 43.6176C100.82 43.7532 100.736 43.9211 100.71 44.1148C100.685 44.3085 100.704 44.5473 100.768 44.825C100.884 45.335 100.987 45.7482 101.084 46.0646C101.174 46.3809 101.258 46.6327 101.329 46.8199L99.9826 47.1298C99.8731 46.9684 99.7765 46.7812 99.6799 46.5617C99.5833 46.3422 99.4868 46.0904 99.3966 45.7999C99.3 45.5093 99.2098 45.1736 99.1261 44.7927L99.1197 44.7862Z" fill="currentColor"/><path d="M99.9955 49.5251L102.224 49.3056L107.388 46.5359L107.569 48.3759L104.117 50.0545L107.826 51.0294L108 52.7984L102.397 51.0875L100.169 51.307L99.9955 49.5316V49.5251Z" fill="currentColor"/><path d="M100.214 58.835L107.742 59.8422L107.369 62.6507C107.279 63.3286 107.047 63.8063 106.68 64.0969C106.313 64.3874 105.804 64.4842 105.167 64.4003C104.851 64.3616 104.587 64.2776 104.374 64.155C104.156 64.0323 103.988 63.8838 103.866 63.703C103.743 63.5223 103.666 63.3286 103.634 63.122C103.576 63.2575 103.492 63.3996 103.389 63.5416C103.286 63.6837 103.151 63.8128 102.99 63.929C102.829 64.0452 102.629 64.1227 102.404 64.1808C102.179 64.2389 101.921 64.2389 101.625 64.2002C101.103 64.1291 100.697 63.9871 100.42 63.774C100.144 63.561 99.9568 63.2834 99.8731 62.9476C99.7894 62.6119 99.7701 62.2181 99.8345 61.7662L100.221 58.8479L100.214 58.835ZM100.994 59.9907L100.749 61.8436C100.717 62.089 100.73 62.3085 100.788 62.4957C100.846 62.6829 100.961 62.8443 101.142 62.9735C101.316 63.1026 101.58 63.1865 101.927 63.2317C102.179 63.264 102.404 63.2382 102.597 63.1542C102.79 63.0703 102.951 62.9412 103.067 62.7733C103.183 62.6055 103.26 62.4118 103.293 62.1858L103.537 60.3329L100.994 59.9907ZM104.336 60.4362L104.098 62.2375C104.059 62.528 104.136 62.7798 104.323 62.9928C104.516 63.1994 104.78 63.335 105.128 63.3867C105.566 63.4577 105.888 63.406 106.087 63.2317C106.287 63.0574 106.409 62.8185 106.448 62.5086L106.68 60.7461L104.329 60.4297L104.336 60.4362Z" fill="currentColor"/><path d="M98.9459 66.2597C99.0296 65.9433 99.1455 65.6851 99.3 65.472C99.4546 65.2589 99.6671 65.1234 99.9311 65.0523C100.195 64.9878 100.517 65.0007 100.904 65.0975L106.699 66.5954L106.442 67.6026L100.794 66.1435C100.582 66.0853 100.408 66.0853 100.272 66.1241C100.137 66.1693 100.034 66.2468 99.9633 66.3565C99.8925 66.4663 99.841 66.5889 99.8023 66.731L99.1455 69.2812L98.2246 69.0423L98.9394 66.2532L98.9459 66.2597Z" fill="currentColor"/><path d="M98.2181 69.2295L104.336 74.4074L103.846 75.6341L95.8547 75.1757L96.254 74.1686L98.3469 74.2848L99.4223 71.5796L97.8188 70.2238L98.2181 69.2231V69.2295ZM100.202 72.1607L99.3128 74.3945L103.247 74.6786L100.202 72.1607Z" fill="currentColor"/><path d="M94.2835 77.8034C94.5024 77.4096 94.7407 77.0868 94.9983 76.8415C95.2494 76.5961 95.5521 76.4412 95.8998 76.3766C96.2476 76.312 96.6726 76.3572 97.1685 76.5057C97.6708 76.6607 98.2761 76.9383 98.9909 77.3386C99.6606 77.7131 100.189 78.0746 100.575 78.4168C100.955 78.759 101.219 79.1011 101.348 79.4433C101.483 79.7791 101.515 80.1277 101.444 80.4828C101.374 80.8379 101.225 81.2123 101.007 81.6126C100.884 81.8321 100.742 82.0581 100.588 82.2841C100.433 82.51 100.272 82.7166 100.111 82.9168C99.9504 83.1169 99.7959 83.2848 99.6542 83.4333L98.9716 83.0524C99.0489 82.9555 99.1519 82.8199 99.2742 82.6456C99.3966 82.4713 99.5318 82.2712 99.6799 82.0452C99.8281 81.8192 99.9697 81.5803 100.111 81.3285C100.279 81.0251 100.388 80.7539 100.433 80.5021C100.478 80.2504 100.453 80.0115 100.343 79.779C100.234 79.5466 100.028 79.3013 99.7315 79.056C99.4352 78.8106 99.0167 78.5395 98.4886 78.2425C97.9541 77.9455 97.5033 77.726 97.1298 77.5968C96.7563 77.4677 96.4472 77.4096 96.1961 77.4354C95.9449 77.4613 95.726 77.5581 95.5392 77.7324C95.3525 77.9067 95.1722 78.1456 94.9983 78.4555C94.7471 78.9075 94.554 79.2819 94.4187 79.5854C94.2835 79.8888 94.174 80.1341 94.0967 80.3278L93.4012 79.9405C93.4592 79.7339 93.53 79.5143 93.6138 79.2819C93.6975 79.0495 93.8005 78.8042 93.91 78.5588C94.0195 78.3135 94.1483 78.0617 94.2899 77.8164L94.2835 77.8034Z" fill="currentColor"/><path d="M92.783 80.5151L98.9007 85.0215L98.2825 85.8608L95.5842 83.8723L94.8501 84.873L96.415 88.4111L95.7646 89.302L94.0065 85.2604L89.6211 84.8214L90.2779 83.924L94.1096 84.3113L94.8372 83.3235L92.1648 81.3544L92.783 80.5151Z" fill="currentColor"/><path d="M86.3047 88.2109C86.5816 87.9527 86.8907 87.7784 87.2255 87.6944C87.5668 87.6105 87.9017 87.617 88.2366 87.7267C88.5714 87.8365 88.8741 88.0366 89.1446 88.3271C89.3893 88.5918 89.5696 88.9017 89.679 89.2504C89.7885 89.599 89.8143 89.9864 89.7692 90.4125L89.6662 91.2712L89.9688 91.3422C90.3359 91.4261 90.6192 91.5294 90.8189 91.6521C91.0185 91.7812 91.1859 91.9104 91.3212 92.0524C91.553 92.3042 91.6818 92.5624 91.7076 92.8336C91.7269 93.0983 91.6689 93.3565 91.5272 93.6148C91.3856 93.8666 91.1988 94.1055 90.9541 94.3314C90.7609 94.5122 90.5742 94.6801 90.3939 94.8157C90.2135 94.9577 90.0526 95.0804 89.9044 95.1837C89.7563 95.287 89.6211 95.3774 89.4987 95.4548L88.9836 94.906L90.1878 93.7827C90.4003 93.589 90.5291 93.3888 90.587 93.1887C90.6386 92.9885 90.5806 92.7949 90.4067 92.6076C90.2973 92.4914 90.162 92.401 89.9882 92.33C89.8143 92.259 89.5825 92.1944 89.2798 92.1363L86.1952 91.5424L86.0406 93.6083L85.4546 93.5373L85.2936 92.33L85.3516 91.4068L83.3682 91.0452L84.1667 90.2963L85.4353 90.5093L85.4868 90.038C85.519 89.6184 85.6027 89.2697 85.7315 88.9921C85.8603 88.7145 86.0535 88.4563 86.3047 88.2174V88.2109ZM86.8392 89.0244C86.691 89.16 86.5816 89.3214 86.4979 89.4957C86.4141 89.6765 86.3691 89.9154 86.3497 90.2124L86.3304 90.6256L88.8161 91.0904L88.8805 90.4319C88.9192 90.1155 88.8998 89.8508 88.8226 89.6378C88.7517 89.4247 88.6423 89.2375 88.4941 89.0825C88.2559 88.8243 87.9854 88.6887 87.6828 88.6758C87.3801 88.6629 87.0967 88.7791 86.8327 89.0244H86.8392Z" fill="currentColor"/><path d="M78.7702 94.1894C79.1759 93.9311 79.5559 93.7891 79.9036 93.7633C80.2513 93.7374 80.5926 93.8149 80.9146 93.9957C81.2366 94.1765 81.5586 94.4541 81.8741 94.8286C82.1897 95.203 82.5181 95.6614 82.8594 96.2037C83.1943 96.7396 83.4519 97.2367 83.6386 97.6887C83.8254 98.1406 83.922 98.5538 83.9284 98.9283C83.9348 99.3027 83.8318 99.6514 83.6257 99.9742C83.4197 100.297 83.0912 100.594 82.6469 100.872C82.3958 101.027 82.1446 101.175 81.887 101.311C81.6294 101.446 81.3783 101.569 81.1207 101.672C80.8695 101.775 80.6248 101.872 80.393 101.95L79.9744 101.272C80.1032 101.214 80.2771 101.13 80.496 101.02C80.715 100.91 80.9597 100.775 81.2237 100.633C81.4878 100.491 81.7518 100.336 82.0094 100.174C82.4151 99.9161 82.6791 99.6449 82.795 99.3479C82.9109 99.0509 82.898 98.6958 82.7564 98.2762C82.6147 97.8565 82.3571 97.3465 81.9772 96.7396C81.6745 96.2554 81.404 95.868 81.1593 95.5775C80.9146 95.2869 80.6828 95.0868 80.4638 94.9641C80.2449 94.8479 80.0195 94.8027 79.7877 94.8415C79.5559 94.8802 79.2983 94.9835 79.0214 95.1578C78.7509 95.3257 78.5062 95.5258 78.2808 95.7518C78.0554 95.9842 77.8687 96.1844 77.7205 96.3651L78.7831 98.076L80.2191 97.1786L80.6377 97.8565C80.5347 97.9469 80.3995 98.0502 80.2513 98.16C80.1032 98.2697 79.9358 98.3859 79.7619 98.5086C79.588 98.6313 79.4142 98.7475 79.2339 98.8572C79.0729 98.9605 78.9183 99.0509 78.7766 99.1284C78.635 99.2059 78.5062 99.2769 78.3903 99.335L76.2201 95.8422L76.8769 95.4354L77.2826 95.8034C77.4114 95.5839 77.6046 95.3192 77.8558 95.0093C78.1069 94.6994 78.4096 94.4283 78.7702 94.1958V94.1894Z" fill="currentColor"/><path d="M72.6719 97.4433C73.1227 97.2432 73.5413 97.1141 73.9212 97.0495C74.3012 96.9849 74.6618 97.0237 74.9967 97.1593C75.3315 97.2948 75.6599 97.5725 75.9755 97.9921C76.291 98.4053 76.6195 98.9928 76.9543 99.7482C77.2892 100.504 77.5017 101.143 77.5918 101.659C77.6884 102.176 77.6691 102.615 77.5468 102.963C77.4244 103.312 77.2119 103.609 76.9157 103.854C76.6195 104.093 76.2395 104.319 75.7887 104.519C75.3251 104.726 74.9001 104.862 74.5201 104.92C74.1402 104.978 73.7796 104.939 73.4447 104.784C73.1098 104.629 72.7814 104.352 72.4594 103.932C72.1374 103.512 71.8155 102.925 71.4806 102.169C71.1457 101.414 70.9332 100.775 70.8431 100.258C70.7529 99.7418 70.7658 99.3156 70.8881 98.9735C71.0105 98.6313 71.223 98.3407 71.5321 98.1019C71.8348 97.863 72.2147 97.6435 72.6784 97.4369L72.6719 97.4433ZM73.0454 98.2956C72.717 98.4376 72.453 98.599 72.2598 98.7669C72.0602 98.9347 71.9314 99.1478 71.8734 99.3931C71.8155 99.6385 71.8283 99.9548 71.9185 100.336C72.0086 100.71 72.1825 101.188 72.4272 101.75C72.6912 102.35 72.936 102.815 73.1613 103.144C73.3867 103.473 73.6057 103.699 73.8246 103.822C74.0436 103.945 74.2819 103.984 74.5394 103.945C74.797 103.906 75.0868 103.816 75.4152 103.667C75.7243 103.532 75.9755 103.383 76.1751 103.215C76.3748 103.047 76.5035 102.847 76.5679 102.602C76.6323 102.357 76.6195 102.034 76.5357 101.646C76.452 101.253 76.2782 100.762 76.0141 100.161C75.763 99.5933 75.5312 99.1478 75.3186 98.825C75.1061 98.5022 74.8872 98.2762 74.6618 98.1535C74.4364 98.0308 74.1981 97.9857 73.9405 98.0179C73.683 98.0502 73.3867 98.1406 73.0519 98.2891L73.0454 98.2956Z" fill="currentColor"/><path d="M67.5394 99.4254C67.8485 99.335 68.1318 99.3027 68.3959 99.3286C68.6599 99.3544 68.8853 99.4641 69.0785 99.6514C69.2717 99.8451 69.4262 100.129 69.5357 100.51L71.2358 106.263L70.2376 106.56L68.5826 100.956C68.5182 100.742 68.4345 100.594 68.3315 100.497C68.222 100.4 68.1061 100.355 67.9773 100.349C67.8485 100.349 67.7133 100.362 67.5716 100.4L65.0537 101.149L64.7832 100.239L67.5394 99.4189V99.4254Z" fill="currentColor"/><path d="M64.1908 100.387L65.4143 107.902L62.3812 108.4C61.9111 108.477 61.5054 108.458 61.1577 108.335C60.81 108.219 60.5137 108.012 60.2626 107.722C60.0114 107.431 59.8054 107.057 59.6444 106.611C59.4834 106.159 59.3481 105.636 59.258 105.049C59.1292 104.248 59.1099 103.551 59.2065 102.963C59.3031 102.376 59.5156 101.905 59.8376 101.55C60.1595 101.194 60.6039 100.975 61.1577 100.885L64.1908 100.387ZM63.315 101.472L61.4024 101.782C61.0289 101.84 60.7456 102.008 60.5524 102.273C60.3592 102.537 60.2433 102.892 60.2046 103.331C60.166 103.77 60.1917 104.287 60.2883 104.874C60.3785 105.41 60.4815 105.856 60.5974 106.211C60.7134 106.566 60.8615 106.844 61.0225 107.044C61.1835 107.244 61.3767 107.373 61.5956 107.438C61.8081 107.502 62.0528 107.509 62.3233 107.463L64.2359 107.154L63.315 101.472Z" fill="currentColor"/><path d="M52.9406 101.485L52.5092 107.296C52.4834 107.651 52.4061 107.948 52.2774 108.174C52.1486 108.4 51.994 108.58 51.8073 108.703C51.6205 108.826 51.4144 108.91 51.189 108.955C50.9637 109 50.7511 109.013 50.5451 108.994C50.3197 108.974 50.017 108.948 49.6435 108.916C49.27 108.884 48.8708 108.839 48.4457 108.787C48.0207 108.735 47.615 108.671 47.2286 108.593L47.3381 107.102L50.1651 107.315C50.3583 107.328 50.5 107.289 50.5966 107.192C50.6932 107.095 50.7447 106.979 50.7576 106.844L50.8349 105.772L47.9628 105.462L48.0658 104.048L50.9508 104.171L51.1569 101.356L52.9342 101.491L52.9406 101.485Z" fill="currentColor"/><path d="M45.49 100.588C45.651 100.62 45.8377 100.671 46.0503 100.749C46.2628 100.826 46.4559 100.943 46.6363 101.091C46.8166 101.24 46.9518 101.446 47.042 101.711C47.1321 101.976 47.1386 102.298 47.0548 102.699L46.2563 106.74C46.1855 107.089 46.076 107.373 45.9215 107.586C45.7669 107.799 45.5866 107.954 45.387 108.051C45.1873 108.148 44.9684 108.206 44.743 108.225C44.5176 108.245 44.2987 108.225 44.099 108.187C43.5581 108.077 43.0944 107.98 42.7016 107.883C42.3088 107.786 41.961 107.696 41.6648 107.618C41.3686 107.541 41.0981 107.463 40.8599 107.392L41.1561 105.914L43.9058 106.463C44.0861 106.501 44.2407 106.482 44.3566 106.418C44.4725 106.353 44.5498 106.23 44.5884 106.05L44.7559 105.217L41.9482 104.552L42.2186 103.176L45.0714 103.635L45.226 102.854C45.2582 102.705 45.2582 102.583 45.226 102.492C45.1938 102.402 45.1423 102.324 45.0714 102.266C45.0006 102.208 44.9169 102.169 44.8203 102.156L42.019 101.601L42.3088 100.129C42.6115 100.155 42.9463 100.187 43.3198 100.232C43.6933 100.278 44.0604 100.329 44.4403 100.394C44.8138 100.452 45.1745 100.517 45.5093 100.588H45.49Z" fill="currentColor"/><path d="M39.984 99.2059C40.1386 99.2575 40.3189 99.335 40.5185 99.4383C40.7181 99.5416 40.8985 99.6772 41.0594 99.8515C41.2204 100.026 41.3299 100.245 41.3814 100.516C41.4394 100.788 41.4007 101.11 41.272 101.498L39.9776 105.41C39.8681 105.752 39.72 106.017 39.5397 106.204C39.3594 106.398 39.1662 106.527 38.9537 106.605C38.7412 106.682 38.5222 106.708 38.2968 106.695C38.0714 106.682 37.8589 106.643 37.6657 106.579C37.1441 106.405 36.6933 106.25 36.3134 106.101C35.9335 105.959 35.5986 105.824 35.3152 105.707C35.0255 105.591 34.7679 105.481 34.5425 105.384L35.0126 103.951L37.6722 104.836C37.846 104.894 38.0006 104.9 38.1229 104.849C38.2453 104.797 38.3419 104.687 38.3999 104.513L38.6639 103.706L35.9592 102.699L36.3971 101.362L39.1662 102.176L39.4173 101.42C39.4624 101.278 39.4817 101.156 39.4624 101.059C39.4431 100.962 39.4044 100.878 39.3336 100.813C39.2692 100.749 39.1919 100.704 39.1018 100.671L36.3907 99.774L36.8608 98.3536C37.157 98.4182 37.4854 98.4957 37.846 98.5861C38.2067 98.6765 38.5673 98.7733 38.9343 98.8831C39.3014 98.9928 39.6492 99.0961 39.9711 99.2059H39.984Z" fill="currentColor"/><path d="M34.594 97.1657C34.9869 97.3529 35.2831 97.5595 35.4827 97.7984C35.6824 98.0373 35.7854 98.3149 35.7918 98.6248C35.7983 98.9347 35.7017 99.2963 35.5149 99.703L33.0743 104.913L31.4579 104.151L33.7698 99.2123C33.8342 99.0832 33.8599 98.967 33.8599 98.8637C33.8599 98.7604 33.8213 98.6765 33.7569 98.599C33.6925 98.5215 33.6023 98.457 33.4864 98.4053L31.3871 97.4175L32.0633 95.9648L34.594 97.1528V97.1657Z" fill="currentColor"/><path d="M31.6639 95.6872L27.8387 102.324L26.2932 101.433L30.1184 94.7963L31.6639 95.6872Z" fill="currentColor"/><path d="M29.307 94.396L24.8186 100.6L23.6788 99.7676L24.0265 94.2927L21.3089 98.0438L19.8665 96.9978L24.3549 90.7934L25.5076 91.6327L25.1663 97.1011L27.8774 93.3565L29.3135 94.4024L29.307 94.396Z" fill="currentColor"/><path d="M22.2942 88.7662C22.6419 89.1019 22.8544 89.4441 22.9317 89.7927C23.009 90.1413 22.9897 90.4964 22.8673 90.8644C22.745 91.2324 22.5453 91.6069 22.2684 91.9943C21.9915 92.3817 21.6567 92.7755 21.2703 93.1758C20.8517 93.6083 20.4524 93.9634 20.0596 94.254C19.6668 94.5445 19.2804 94.7382 18.894 94.8415C18.5077 94.9448 18.1148 94.9254 17.7156 94.7898C17.3163 94.6543 16.8977 94.3766 16.4663 93.9505C16.1958 93.6858 15.964 93.4405 15.7772 93.2145C15.5905 92.9885 15.423 92.7626 15.2749 92.5431C15.1268 92.3235 14.9851 92.0976 14.837 91.8587L15.8094 90.858C15.8996 90.9806 16.0219 91.1356 16.1701 91.3164C16.3246 91.4971 16.4985 91.6908 16.6981 91.9039C16.8977 92.117 17.1167 92.3365 17.3421 92.5624C17.6383 92.853 17.9088 93.0208 18.1535 93.0725C18.3982 93.1241 18.6622 93.0531 18.9456 92.8594C19.2289 92.6657 19.5766 92.3558 19.9888 91.9297C20.3108 91.6004 20.5555 91.3164 20.7293 91.084C20.9032 90.8515 21.0127 90.6449 21.0642 90.4642C21.1157 90.2834 21.1029 90.122 21.0449 89.9735C20.9805 89.825 20.8775 89.6829 20.7293 89.5345C20.5362 89.3472 20.3494 89.1858 20.1627 89.0567C19.9759 88.9276 19.8278 88.8243 19.7119 88.7597L18.8618 89.6313L19.7248 90.4706L18.7395 91.4842C18.6171 91.3938 18.4755 91.2841 18.3209 91.1485C18.1664 91.0194 18.0054 90.8773 17.8379 90.7289C17.6705 90.5804 17.5224 90.4383 17.3872 90.3092C17.2133 90.1413 17.0652 89.9928 16.9364 89.8637C16.8076 89.7346 16.6917 89.6119 16.5951 89.4957L19.6926 86.3063L20.6521 87.2425L20.4782 87.7784C20.6843 87.8236 20.9547 87.9268 21.3025 88.0753C21.6502 88.2238 21.9722 88.4563 22.2878 88.7597L22.2942 88.7662Z" fill="currentColor"/><path d="M17.6705 83.8787L12.9374 87.2554C12.6476 87.462 12.3707 87.5911 12.1131 87.6363C11.8555 87.6815 11.6172 87.675 11.4047 87.6104C11.1922 87.5459 10.9926 87.4361 10.8187 87.2941C10.6448 87.1521 10.4967 86.9906 10.3744 86.8228C10.2456 86.6356 10.0717 86.3902 9.8592 86.0803C9.64669 85.7704 9.42774 85.4347 9.19591 85.0731C8.96408 84.7116 8.75157 84.3565 8.56482 84.0079L9.78192 83.1363L11.424 85.4476C11.5335 85.6026 11.6623 85.6929 11.7975 85.7059C11.9328 85.7188 12.0551 85.6865 12.171 85.6026L13.0468 84.9828L11.4498 82.5746L12.6025 81.7546L14.3541 84.0595L16.6466 82.4261L17.677 83.8787H17.6705Z" fill="currentColor"/><path d="M14.9336 80.1664L7.10295 81.774L6.04041 79.8113L11.6494 74.104L12.5316 75.731L11.4948 76.7381L12.654 78.8816L14.0578 78.5524L14.9336 80.1664ZM11.0569 79.2819L10.2906 77.868L7.92079 80.076L11.0569 79.2884V79.2819Z" fill="currentColor"/><path d="M11.5528 73.7941L4.37253 76.4218L3.88955 75.0918L7.23175 70.7468L2.88496 72.335L2.27319 70.6564L9.45345 68.0287L9.94286 69.3651L6.61354 73.7102L10.9475 72.1219L11.5528 73.7877V73.7941Z" fill="currentColor"/><path d="M8.79012 64.7166C8.88027 65.1492 8.91891 65.543 8.88671 65.8981C8.86095 66.2597 8.7386 66.5825 8.51965 66.8795C8.3007 67.1765 7.95296 67.4347 7.47642 67.6736C6.99988 67.906 6.36235 68.1126 5.56383 68.2869C4.78463 68.4548 4.13422 68.5323 3.61261 68.5065C3.09099 68.4806 2.66597 68.3838 2.34399 68.203C2.02201 68.0222 1.77086 67.7769 1.59055 67.4605C1.41023 67.1442 1.275 66.7826 1.18485 66.363C1.10113 65.9885 1.04961 65.6399 1.02385 65.3171C0.998095 65.0007 0.985215 64.7166 0.998095 64.4778C1.00453 64.2389 1.02385 64.0323 1.04961 63.8773L2.40195 63.5868C2.40195 63.7224 2.41483 63.8902 2.43414 64.0968C2.45346 64.3034 2.48566 64.5423 2.5243 64.807C2.56294 65.0717 2.61446 65.3558 2.67885 65.6528C2.73037 65.9046 2.80765 66.1112 2.8978 66.2791C2.98796 66.4469 3.12319 66.5631 3.3035 66.6342C3.47737 66.7052 3.72208 66.731 4.03119 66.7181C4.34029 66.7052 4.72667 66.6471 5.20321 66.5438C5.65399 66.4469 6.02105 66.3436 6.31084 66.2403C6.60062 66.137 6.81313 66.0143 6.94837 65.8788C7.09004 65.7432 7.17376 65.5753 7.19951 65.3881C7.22527 65.1944 7.21239 64.9555 7.148 64.6779C7.03852 64.1679 6.93549 63.7547 6.84533 63.4383C6.75518 63.122 6.6779 62.8702 6.60706 62.6829L7.9594 62.3924C8.06243 62.5538 8.16547 62.741 8.25562 62.9605C8.35222 63.1801 8.44237 63.4319 8.53253 63.7224C8.62268 64.0129 8.71284 64.3486 8.79656 64.736L8.79012 64.7166Z" fill="currentColor"/><path d="M7.96589 59.9584L5.73776 60.1521L0.540934 62.8637L0.379942 61.0236L3.85093 59.3838L0.154553 58.3637L0 56.5947L5.58321 58.3701L7.81134 58.1764L7.96589 59.9584Z" fill="currentColor"/><path d="M7.85642 50.6485L0.341309 49.5509L0.747009 46.7489C0.843604 46.0775 1.08187 45.5933 1.45537 45.3092C1.82888 45.0251 2.33761 44.9347 2.97514 45.0251C3.29069 45.0703 3.54827 45.1542 3.76722 45.2834C3.98617 45.4125 4.14716 45.561 4.27596 45.7418C4.39831 45.9225 4.47559 46.1162 4.50135 46.3228C4.56574 46.1872 4.64302 46.0452 4.75249 45.9032C4.85553 45.7611 4.99076 45.632 5.1582 45.5222C5.32563 45.4125 5.51882 45.3286 5.74421 45.2769C5.9696 45.2253 6.22718 45.2253 6.52341 45.264C7.04502 45.3415 7.44428 45.49 7.72119 45.703C7.9981 45.9225 8.17841 46.2002 8.26212 46.5359C8.34584 46.8716 8.35228 47.2719 8.28788 47.7174L7.86286 50.6291L7.85642 50.6485ZM3.75434 48.9957L4.01837 47.1944C4.06345 46.9039 3.98617 46.6521 3.79942 46.439C3.61267 46.226 3.3422 46.0904 3.0009 46.0323C2.563 45.9548 2.24102 46 2.03495 46.1743C1.83532 46.3486 1.71296 46.5875 1.66788 46.891L1.4103 48.6471L3.75434 48.9893V48.9957ZM7.0901 49.4799L7.36057 47.627C7.39921 47.3816 7.38633 47.1621 7.32837 46.9749C7.27041 46.7877 7.1545 46.6263 6.98063 46.4971C6.80675 46.368 6.54273 46.2776 6.19498 46.226C5.94384 46.1872 5.71845 46.2131 5.52526 46.297C5.33207 46.3809 5.17107 46.5036 5.04872 46.6715C4.92637 46.8393 4.84909 47.033 4.81689 47.259L4.54642 49.1119L7.08366 49.4799H7.0901Z" fill="currentColor"/><path d="M9.21521 43.2367C9.13149 43.5466 9.00914 43.8113 8.84814 44.0179C8.68715 44.231 8.47464 44.3666 8.21705 44.4311C7.95303 44.4957 7.63104 44.4763 7.24466 44.373L1.46826 42.8041L1.73873 41.797L7.36702 43.3271C7.57952 43.3852 7.7534 43.3917 7.88863 43.3529C8.02386 43.3142 8.1269 43.2367 8.19774 43.127C8.26857 43.0172 8.32653 42.8945 8.36517 42.7525L9.05421 40.2087L9.96865 40.4541L9.21521 43.2367Z" fill="currentColor"/><path d="M9.97506 40.2862L3.92175 35.0308L4.42405 33.8106L12.4093 34.3658L11.9971 35.3666L9.90422 35.2245L8.7966 37.9168L10.3808 39.2855L9.97506 40.2798V40.2862ZM8.02383 37.3357L8.93827 35.1083L5.00362 34.779L8.01739 37.3357H8.02383Z" fill="currentColor"/><path d="M14.0063 31.7575C13.7809 32.1514 13.5426 32.4677 13.285 32.7131C13.0274 32.9519 12.7248 33.1069 12.377 33.165C12.0293 33.2296 11.6043 33.1779 11.1084 33.0165C10.6126 32.8551 10.0072 32.571 9.29887 32.1643C8.62914 31.7834 8.10753 31.4153 7.72758 31.0667C7.34764 30.7181 7.09649 30.3759 6.9677 30.0337C6.83891 29.6915 6.81315 29.3493 6.88399 28.9943C6.96126 28.6392 7.10937 28.2647 7.33476 27.8709C7.46356 27.6514 7.60523 27.4254 7.75978 27.2059C7.91434 26.9864 8.08177 26.7733 8.24276 26.5796C8.40375 26.3859 8.5583 26.2116 8.70642 26.0696L9.38258 26.457C9.30531 26.5538 9.20227 26.6894 9.07348 26.8637C8.94469 27.038 8.80945 27.2382 8.66134 27.4577C8.51323 27.6836 8.36511 27.9225 8.22344 28.1679C8.04957 28.4648 7.94009 28.7425 7.88858 28.9878C7.83706 29.2396 7.86282 29.4785 7.97229 29.7174C8.08177 29.9562 8.2814 30.1951 8.57762 30.4469C8.87385 30.6987 9.28599 30.9699 9.8076 31.2733C10.3357 31.5768 10.7864 31.7963 11.1599 31.9383C11.527 32.0739 11.8425 32.132 12.0937 32.1126C12.3448 32.0933 12.5702 31.9964 12.757 31.8285C12.9437 31.6607 13.1305 31.4218 13.3044 31.1054C13.5619 30.66 13.7616 30.2855 13.8968 29.9821C14.0385 29.6851 14.148 29.4333 14.2252 29.2396L14.9143 29.6334C14.8563 29.8336 14.779 30.0531 14.6889 30.292C14.5987 30.5244 14.5021 30.7697 14.3798 31.0151C14.2639 31.2604 14.1351 31.5057 13.9934 31.7511L14.0063 31.7575Z" fill="currentColor"/><path d="M15.539 29.0653L9.47278 24.4878L10.0974 23.655L12.7699 25.6758L13.5105 24.688L11.9907 21.1306L12.654 20.2461L14.3669 24.307L18.7459 24.7977L18.0762 25.6887L14.251 25.2561L13.5105 26.2375L16.1636 28.2389L15.539 29.0717V29.0653Z" fill="currentColor"/><path d="M22.1139 21.4405C21.837 21.6923 21.5215 21.8601 21.1866 21.944C20.8453 22.028 20.5104 22.0086 20.1756 21.8989C19.8407 21.7891 19.5445 21.5825 19.274 21.2855C19.0293 21.0144 18.8554 20.7045 18.7524 20.3558C18.6494 20.0072 18.6236 19.6198 18.6751 19.1937L18.791 18.335L18.4884 18.264C18.1213 18.1801 17.838 18.0703 17.6383 17.9412C17.4387 17.8121 17.2713 17.6765 17.1425 17.5344C16.9107 17.2826 16.7883 17.0179 16.769 16.7532C16.7497 16.4885 16.8141 16.2303 16.9557 15.9785C17.0974 15.7267 17.2906 15.4878 17.5353 15.2683C17.7349 15.0875 17.9217 14.9261 18.102 14.7841C18.2823 14.642 18.4433 14.5258 18.5914 14.4225C18.7395 14.3192 18.8748 14.2288 19.0035 14.1514L19.5123 14.7066L18.2887 15.8171C18.0762 16.0108 17.941 16.2109 17.883 16.4111C17.8251 16.6112 17.883 16.8049 18.0569 16.9921C18.1664 17.1083 18.3016 17.2052 18.4755 17.2762C18.6494 17.3472 18.8812 17.4182 19.1839 17.4763L22.262 18.109L22.4423 16.0495L23.0284 16.127L23.1765 17.3343L23.1121 18.2575L25.0891 18.6449L24.2777 19.3809L23.0155 19.155L22.9575 19.6263C22.9189 20.0459 22.8287 20.3946 22.6999 20.6722C22.5647 20.9498 22.3715 21.208 22.1204 21.4405H22.1139ZM21.5923 20.6205C21.7404 20.4849 21.8563 20.33 21.94 20.1492C22.0238 19.9684 22.0753 19.7296 22.0946 19.439L22.1204 19.0258L19.6411 18.5352L19.5638 19.1872C19.5252 19.5036 19.538 19.7683 19.6089 19.9814C19.6797 20.1944 19.7828 20.3816 19.9309 20.543C20.1691 20.8013 20.4332 20.9433 20.7358 20.9562C21.0385 20.9756 21.3218 20.8594 21.5859 20.6205H21.5923Z" fill="currentColor"/><path d="M29.7128 15.5588C29.3071 15.8171 28.9271 15.9527 28.5729 15.972C28.2187 15.9914 27.8839 15.9139 27.5619 15.7267C27.2399 15.5459 26.9244 15.2618 26.6153 14.8874C26.2997 14.5129 25.9777 14.0481 25.6493 13.4993C25.3209 12.957 25.0697 12.4598 24.883 12.0079C24.7027 11.556 24.6061 11.1428 24.6061 10.7618C24.6061 10.3874 24.7091 10.0387 24.9216 9.71592C25.1341 9.39957 25.4626 9.10258 25.9133 8.83142C26.1645 8.67647 26.4221 8.53443 26.6797 8.40531C26.9372 8.26973 27.1948 8.15351 27.446 8.05021C27.7036 7.94692 27.9483 7.85653 28.1801 7.77905L28.5922 8.45696C28.4635 8.50861 28.2896 8.59254 28.0642 8.7023C27.8388 8.81205 27.6005 8.94118 27.3365 9.07676C27.0725 9.21234 26.8085 9.36729 26.5444 9.52869C26.1323 9.78049 25.8683 10.0516 25.7459 10.3422C25.6236 10.6392 25.6364 10.9943 25.7717 11.4139C25.9069 11.8336 26.1645 12.3501 26.5315 12.9634C26.8278 13.4541 27.0982 13.8415 27.3365 14.132C27.5748 14.4225 27.8066 14.6291 28.0256 14.7518C28.2445 14.8745 28.4699 14.9197 28.7017 14.8809C28.9335 14.8422 29.1911 14.7453 29.4745 14.571C29.745 14.4096 29.9961 14.2095 30.2215 13.9835C30.4469 13.7575 30.6401 13.5509 30.7882 13.3766L29.7449 11.6528L28.3025 12.5308L27.8903 11.8529C27.9998 11.7626 28.1286 11.6657 28.2831 11.556C28.4377 11.4462 28.5987 11.33 28.7726 11.2138C28.9464 11.0976 29.1267 10.9813 29.3071 10.8716C29.4745 10.7747 29.6226 10.6844 29.7643 10.6069C29.9059 10.5294 30.0347 10.4648 30.1571 10.4067L32.2822 13.9189L31.6189 14.3192L31.2132 13.9512C31.078 14.1707 30.8848 14.4354 30.6272 14.7389C30.3696 15.0488 30.0605 15.3135 29.7063 15.5395L29.7128 15.5588Z" fill="currentColor"/><path d="M35.8498 12.3759C35.3926 12.5696 34.974 12.6987 34.594 12.7568C34.2141 12.8149 33.8535 12.7762 33.5186 12.6341C33.1837 12.4921 32.8618 12.2145 32.5462 11.7884C32.2307 11.3687 31.9151 10.7812 31.5931 10.0194C31.2712 9.25752 31.0651 8.61835 30.9749 8.10185C30.8848 7.58535 30.9105 7.14633 31.0329 6.79769C31.1617 6.44905 31.3742 6.15207 31.6769 5.91319C31.9795 5.6743 32.3595 5.46125 32.8102 5.26111C33.2803 5.06096 33.7054 4.93184 34.0853 4.88019C34.4717 4.82208 34.8259 4.87373 35.1607 5.02868C35.4956 5.18363 35.8176 5.46771 36.1331 5.89382C36.4487 6.31993 36.7642 6.90745 37.0926 7.66928C37.4146 8.43112 37.6207 9.07029 37.7108 9.58679C37.801 10.1033 37.7752 10.5294 37.6464 10.8716C37.5177 11.2138 37.2987 11.4978 36.996 11.7367C36.6869 11.9756 36.307 12.1887 35.8433 12.3888L35.8498 12.3759ZM35.4827 11.5237C35.8111 11.3816 36.0752 11.2267 36.2748 11.0588C36.4744 10.8909 36.6097 10.6843 36.6676 10.4326C36.7256 10.1808 36.7191 9.87086 36.629 9.48994C36.5453 9.10903 36.3778 8.63772 36.1331 8.06957C35.8755 7.46914 35.6373 7.00429 35.4183 6.66857C35.1994 6.33284 34.9804 6.10687 34.7615 5.9842C34.5425 5.86154 34.3042 5.81634 34.0467 5.84862C33.7891 5.88736 33.4928 5.97129 33.1644 6.11333C32.8553 6.24891 32.5977 6.39095 32.3981 6.55235C32.1985 6.71376 32.0632 6.9139 31.9988 7.15924C31.9344 7.40458 31.9409 7.72739 32.0182 8.11476C32.1019 8.50859 32.2693 9.00573 32.5269 9.60616C32.7716 10.1743 32.997 10.6262 33.2031 10.9491C33.4156 11.2719 33.6281 11.4978 33.8535 11.627C34.0724 11.7561 34.3171 11.8013 34.5747 11.7755C34.8323 11.7496 35.135 11.6592 35.4698 11.5172L35.4827 11.5237Z" fill="currentColor"/><path d="M41.0015 10.4584C40.6924 10.5488 40.4026 10.5746 40.145 10.5488C39.881 10.5165 39.6556 10.4067 39.4688 10.2131C39.2756 10.0194 39.1275 9.72883 39.018 9.34792L37.3888 3.57604L38.3869 3.29196L39.9775 8.91535C40.0355 9.1284 40.1192 9.28335 40.2287 9.37374C40.3317 9.47058 40.4541 9.52223 40.5829 9.52869C40.7117 9.53515 40.8469 9.51578 40.9886 9.47704L43.5194 8.7604L43.777 9.67718L41.0143 10.4648L41.0015 10.4584Z" fill="currentColor"/><path d="M44.363 9.5287L43.2296 2.00072L46.2627 1.54233C46.7328 1.47131 47.1385 1.49713 47.4862 1.6198C47.834 1.74247 48.1238 1.94907 48.3749 2.24606C48.6196 2.54304 48.8193 2.91105 48.9803 3.36944C49.1412 3.82784 49.2636 4.34433 49.3538 4.93831C49.4761 5.73888 49.4826 6.43616 49.3795 7.02367C49.2765 7.61119 49.0575 8.07604 48.7291 8.42468C48.4007 8.77332 47.9563 8.99283 47.4025 9.07676L44.3694 9.53515L44.363 9.5287ZM45.2517 8.45696L47.1643 8.16643C47.5378 8.10832 47.8211 7.95337 48.0207 7.68867C48.2204 7.42396 48.3363 7.07532 48.3814 6.62984C48.4264 6.18436 48.4071 5.67432 48.317 5.0868C48.2333 4.55093 48.1367 4.10545 48.0207 3.75036C47.9048 3.39527 47.7632 3.11765 47.6022 2.91751C47.4412 2.71736 47.2544 2.58178 47.0355 2.51722C46.823 2.45266 46.5783 2.43974 46.3078 2.47848L44.3952 2.76901L45.2517 8.45696Z" fill="currentColor"/></svg>