<svg xmlns="http://www.w3.org/2000/svg" fill="none" viewBox="0 0 24 24"><path fill="currentColor" fill-rule="evenodd" d="M16.236 2.528a8.331 8.331 0 0 0-12.59 7.508c.013.33-.315-.05-.646-.036-.331.014-.54.417-.554.086a9.531 9.531 0 1 1 19.045 0 .6.6 0 1 1-1.198-.05 8.331 8.331 0 0 0-4.057-7.508ZM19.937 17.784a.6.6 0 0 1 .14.837 9.518 9.518 0 0 1-6.224 3.876.6.6 0 1 1-.192-1.184 8.317 8.317 0 0 0 5.439-3.388.6.6 0 0 1 .837-.14Z" clip-rule="evenodd"/><path fill="currentColor" fill-rule="evenodd" d="M20.33 9.544a2.826 2.826 0 0 1 2.965 1.073c.448.61.635 1.373.521 2.122l-.585 3.877a2.827 2.827 0 0 1-5.078 1.267 2.867 2.867 0 0 1-.521-2.123l.585-3.876a2.826 2.826 0 0 1 2.112-2.34Zm1.997 1.781a1.626 1.626 0 0 0-2.922.73v.006l-.587 3.879c-.066.435.043.878.303 1.233a1.627 1.627 0 0 0 2.922-.73v-.005l.587-3.879a1.664 1.664 0 0 0-.303-1.234ZM9.509 21.386a2.467 2.467 0 0 1 2.46-2.475 2.467 2.467 0 0 1 2.46 2.475 2.468 2.468 0 0 1-2.46 2.475 2.468 2.468 0 0 1-2.46-2.475Zm2.46-1.275c-.691 0-1.26.566-1.26 1.275s.569 1.275 1.26 1.275c.691 0 1.26-.566 1.26-1.275s-.569-1.275-1.26-1.275ZM3.52 9.085a2.826 2.826 0 0 0-2.966 1.072 2.861 2.861 0 0 0-.521 2.123l.585 3.876a2.827 2.827 0 0 0 5.078 1.268c.447-.611.634-1.375.521-2.123l-.586-3.877a2.826 2.826 0 0 0-2.111-2.34Zm-1.998 1.78a1.626 1.626 0 0 1 2.922.731v.005l.587 3.88c.065.434-.043.878-.303 1.233a1.627 1.627 0 0 1-2.922-.73v-.005L1.218 12.1c-.066-.435.043-.88.303-1.234Z" clip-rule="evenodd"/></svg>