<svg style="color:#00358D;" class="ThemeButton_largeStar__LDZUp" viewBox="0 0 16 16" fill="none" xmlns="http://www.w3.org/2000/svg"><path d="M8 16C7.73478 16 7.48043 15.8946 7.29289 15.7071C7.10536 15.5196 7 15.2652 7 15C6.99841 13.4092 6.36576 11.884 5.24089 10.7591C4.11601 9.63424 2.59081 9.00159 1 9C0.734784 9 0.48043 8.89464 0.292893 8.70711C0.105357 8.51957 0 8.26522 0 8C0 7.73478 0.105357 7.48043 0.292893 7.29289C0.48043 7.10536 0.734784 7 1 7C2.59081 6.99841 4.11601 6.36576 5.24089 5.24089C6.36576 4.11601 6.99841 2.59081 7 1C7 0.734784 7.10536 0.48043 7.29289 0.292893C7.48043 0.105357 7.73478 0 8 0C8.26522 0 8.51957 0.105357 8.70711 0.292893C8.89464 0.48043 9 0.734784 9 1C9.00159 2.59081 9.63424 4.11601 10.7591 5.24089C11.884 6.36576 13.4092 6.99841 15 7C15.2652 7 15.5196 7.10536 15.7071 7.29289C15.8946 7.48043 16 7.73478 16 8C16 8.26522 15.8946 8.51957 15.7071 8.70711C15.5196 8.89464 15.2652 9 15 9C13.4092 9.00159 11.884 9.63424 10.7591 10.7591C9.63424 11.884 9.00159 13.4092 9 15C9 15.2652 8.89464 15.5196 8.70711 15.7071C8.51957 15.8946 8.26522 16 8 16Z" fill="currentColor"/></svg>