<svg style="color:#00358D;" class="ThemeButton_smallStar__Lmy2G" viewBox="0 0 10 10" fill="none" xmlns="http://www.w3.org/2000/svg"><path d="M9 4C8.20435 4 7.44129 3.68393 6.87868 3.12132C6.31607 2.55871 6 1.79565 6 1C6 0.734784 5.89464 0.48043 5.70711 0.292893C5.51957 0.105357 5.26522 0 5 0C4.73478 0 4.48043 0.105357 4.29289 0.292893C4.10536 0.48043 4 0.734784 4 1C4 1.79565 3.68393 2.55871 3.12132 3.12132C2.55871 3.68393 1.79565 4 1 4C0.734784 4 0.480429 4.10536 0.292892 4.29289C0.105356 4.48043 0 4.73478 0 5C0 5.26522 0.105356 5.51957 0.292892 5.70711C0.480429 5.89464 0.734784 6 1 6C1.79565 6 2.55871 6.31607 3.12132 6.87868C3.68393 7.44129 4 8.20435 4 9C4 9.26522 4.10536 9.51957 4.29289 9.70711C4.48043 9.89464 4.73478 10 5 10C5.26522 10 5.51957 9.89464 5.70711 9.70711C5.89464 9.51957 6 9.26522 6 9C6 8.20435 6.31607 7.44129 6.87868 6.87868C7.44129 6.31607 8.20435 6 9 6C9.26522 6 9.51957 5.89464 9.70711 5.70711C9.89464 5.51957 10 5.26522 10 5C10 4.73478 9.89464 4.48043 9.70711 4.29289C9.51957 4.10536 9.26522 4 9 4Z" fill="currentColor"/></svg>