<svg class="LocationsSlider_svg__6TBtR" viewBox="0 0 80 62" fill="currentColor" xmlns="http://www.w3.org/2000/svg"><path d="M0 13.7099V7.68797C6.04415 2.60731 13.9173 -0.925947 21.9435 0.214907C27.9348 0.955194 33.0322 3.99705 38.1253 7.0363C40.6281 8.52978 43.1305 10.0231 45.7367 11.2418C56.206 16.4681 68.0873 21.8414 80 18.9429V23.9261C64.8211 26.1115 50.4485 19.0703 37.5598 11.9029C36.5945 11.3595 35.6312 10.788 34.6634 10.2139L34.6616 10.2126C30.0938 7.50247 25.426 4.73293 19.9836 4.58207C12.2365 3.9317 5.14239 8.26057 0 13.7099Z" fill="currentColor"/><path d="M80 60.6842C74.703 61.3414 69.2692 61.3479 64.0715 60.0121C52.3682 57.2132 41.7255 51.2848 31.4693 45.1806C26.313 42.0793 20.0047 40.3985 14.0406 41.8894C8.55306 43.1389 3.86137 46.5432 0 50.5205V44.5929C4.1554 41.0796 9.01719 38.2475 14.4339 37.2972L14.4268 37.2901C20.9951 35.8907 27.8373 37.8809 33.5204 41.2283C42.1398 46.3058 50.9209 51.32 60.4887 54.4142C66.7477 56.4235 73.4941 57.4013 80 55.9946V60.6842Z" fill="currentColor"/><path d="M80 42.1859V37.5815C67.854 40.1217 55.9201 34.8239 45.3011 29.463C42.8428 28.2861 40.4604 26.8617 38.0734 25.4347C32.4732 22.0864 26.848 18.7233 20.1593 18.5064V18.4923C12.6948 17.9466 5.64762 21.4244 0 26.0724V32.1725C4.16591 27.8609 9.31628 24.1058 15.3822 23.2392C20.8757 22.3391 26.5096 23.8018 31.2303 26.6289C41.0932 32.501 51.2511 38.1903 62.3995 41.2072C68.1241 42.7607 74.1409 43.1931 80 42.1859Z" fill="currentColor"/></svg>