<svg xmlns="http://www.w3.org/2000/svg" fill="none" viewBox="0 0 24 24"><path fill="currentColor" fill-rule="evenodd" d="M.9 12C.9 5.87 5.87.9 12 .9S23.1 5.87 23.1 12 18.13 23.1 12 23.1.9 18.13.9 12ZM12 2.1c-5.468 0-9.9 4.432-9.9 9.9s4.432 9.9 9.9 9.9 9.9-4.432 9.9-9.9-4.432-9.9-9.9-9.9Z" clip-rule="evenodd"/><path fill="currentColor" fill-rule="evenodd" d="M12 7.65a.6.6 0 0 1 .6.6V12a.6.6 0 1 1-1.2 0V8.25a.6.6 0 0 1 .6-.6Z" clip-rule="evenodd"/><path fill="currentColor" fill-rule="evenodd" d="M11.576 11.576a.6.6 0 0 1 .848 0l4.687 4.688a.6.6 0 1 1-.848.848l-4.687-4.688a.6.6 0 0 1 0-.848Z" clip-rule="evenodd"/></svg>